<svg width="22" height="20" viewBox="0 0 22 20" fill="none" xmlns="http://www.w3.org/2000/svg">
<path d="M12 20C11.8167 20 11.654 19.9543 11.512 19.863C11.37 19.7717 11.2493 19.6507 11.15 19.5C11.0667 19.35 11.021 19.1873 11.013 19.012C11.005 18.8367 11.0423 18.666 11.125 18.5L15.125 11.5C15.225 11.35 15.3543 11.225 15.513 11.125C15.6717 11.025 15.8423 10.975 16.025 10.975C16.2083 10.975 16.375 11.021 16.525 11.113C16.675 11.205 16.7917 11.334 16.875 11.5L20.875 18.5C20.975 18.65 21.021 18.8167 21.013 19C21.005 19.1833 20.959 19.35 20.875 19.5C20.775 19.65 20.65 19.771 20.5 19.863C20.35 19.955 20.1833 20.0007 20 20H12ZM16 19C16.1333 19 16.25 18.95 16.35 18.85C16.45 18.75 16.5 18.6333 16.5 18.5C16.5 18.3667 16.45 18.25 16.35 18.15C16.25 18.05 16.1333 18 16 18C15.8667 18 15.75 18.05 15.65 18.15C15.55 18.25 15.5 18.3667 15.5 18.5C15.5 18.6333 15.55 18.75 15.65 18.85C15.75 18.95 15.8667 19 16 19ZM16 17C16.1333 17 16.25 16.95 16.35 16.85C16.45 16.75 16.5 16.6333 16.5 16.5V13.5C16.5 13.3667 16.45 13.25 16.35 13.15C16.25 13.05 16.1333 13 16 13C15.8667 13 15.75 13.05 15.65 13.15C15.55 13.25 15.5 13.3667 15.5 13.5V16.5C15.5 16.6333 15.55 16.75 15.65 16.85C15.75 16.95 15.8667 17 16 17ZM2 20C1.45 20 0.979333 19.8043 0.588 19.413C0.196667 19.0217 0.000666667 18.5507 0 18V15C0 14.7167 0.0960001 14.4793 0.288 14.288C0.48 14.0967 0.717333 14.0007 1 14C1.28333 14 1.521 14.096 1.713 14.288C1.905 14.48 2.00067 14.7173 2 15V18H5C5.28333 18 5.521 18.096 5.713 18.288C5.905 18.48 6.00067 18.7173 6 19C6 19.2833 5.904 19.521 5.712 19.713C5.52 19.905 5.28267 20.0007 5 20H2ZM0 5V2C0 1.45 0.196 0.979333 0.588 0.588C0.98 0.196667 1.45067 0.000666667 2 0H5C5.28333 0 5.521 0.0960001 5.713 0.288C5.905 0.48 6.00067 0.717333 6 1C6 1.28333 5.904 1.521 5.712 1.713C5.52 1.905 5.28267 2.00067 5 2H2V5C2 5.28333 1.904 5.521 1.712 5.713C1.52 5.905 1.28267 6.00067 1 6C0.716667 6 0.479333 5.904 0.288 5.712C0.0966668 5.52 0.000666667 5.28267 0 5ZM10 12C9.45 12 8.97933 11.8043 8.588 11.413C8.19667 11.0217 8.00067 10.5507 8 10C8 9.43333 8.196 8.95833 8.588 8.575C8.98 8.19167 9.45067 8 10 8C10.5667 8 11.0417 8.19167 11.425 8.575C11.8083 8.95833 12 9.43333 12 10C12 10.55 11.8083 11.021 11.425 11.413C11.0417 11.805 10.5667 12.0007 10 12ZM18 5V2H15C14.7167 2 14.4793 1.904 14.288 1.712C14.0967 1.52 14.0007 1.28267 14 1C14 0.716667 14.096 0.479333 14.288 0.288C14.48 0.0966668 14.7173 0.000666667 15 0H18C18.55 0 19.021 0.196 19.413 0.588C19.805 0.98 20.0007 1.45067 20 2V5C20 5.28333 19.904 5.521 19.712 5.713C19.52 5.905 19.2827 6.00067 19 6C18.7167 6 18.4793 5.904 18.288 5.712C18.0967 5.52 18.0007 5.28267 18 5ZM4.175 11C3.875 11 3.64167 11.1293 3.475 11.388C3.30833 11.6467 3.26667 11.9257 3.35 12.225C3.66667 13.275 4.21667 14.1833 5 14.95C5.78333 15.7167 6.7 16.275 7.75 16.625C8.05 16.725 8.32933 16.6793 8.588 16.488C8.84667 16.2967 8.97567 16.0423 8.975 15.725C8.975 15.4917 8.9 15.279 8.75 15.087C8.6 14.895 8.40833 14.7577 8.175 14.675C7.525 14.425 6.946 14.0583 6.438 13.575C5.93 13.0917 5.559 12.5167 5.325 11.85C5.24167 11.6 5.096 11.396 4.888 11.238C4.68 11.08 4.44233 11.0007 4.175 11ZM4.2 9C3.9 9 3.66667 8.871 3.5 8.613C3.33333 8.355 3.29167 8.07567 3.375 7.775C3.69167 6.725 4.246 5.81667 5.038 5.05C5.83 4.28333 6.75067 3.725 7.8 3.375C8.1 3.275 8.375 3.321 8.625 3.513C8.875 3.705 9 3.959 9 4.275C9 4.50833 8.925 4.721 8.775 4.913C8.625 5.105 8.43333 5.24233 8.2 5.325C7.55 5.575 6.971 5.94167 6.463 6.425C5.955 6.90833 5.584 7.48333 5.35 8.15C5.26667 8.4 5.121 8.60433 4.913 8.763C4.705 8.92167 4.46733 9.00067 4.2 9ZM15.85 9C16.15 9 16.3833 8.871 16.55 8.613C16.7167 8.355 16.7583 8.07567 16.675 7.775C16.3583 6.725 15.8043 5.81667 15.013 5.05C14.2217 4.28333 13.3007 3.725 12.25 3.375C11.95 3.275 11.675 3.321 11.425 3.513C11.175 3.705 11.05 3.959 11.05 4.275C11.05 4.50833 11.125 4.721 11.275 4.913C11.425 5.105 11.6167 5.24233 11.85 5.325C12.5 5.575 13.0793 5.94167 13.588 6.425C14.0967 6.90833 14.4673 7.48333 14.7 8.15C14.7833 8.4 14.9293 8.60433 15.138 8.763C15.3467 8.92167 15.584 9.00067 15.85 9Z" fill="black"/>
</svg>
