<svg width="22" height="19" viewBox="0 0 22 19" fill="none" xmlns="http://www.w3.org/2000/svg">
<path d="M19.56 0.36C19.08 -0.12 18.24 -0.12 17.64 0.36L14.76 3.24C13.4925 2.76948 12.152 2.52576 10.8 2.52C6.24 2.64 2.16 5.04 0 9C0.24 9.48 0.6 9.96 0.96 10.44C1.92 11.76 3.12 12.84 4.44 13.68L2.4 15.72C1.92 16.2 1.8 17.04 2.4 17.64C2.88 18.12 3.72 18.24 4.32 17.64L19.56 2.28C20.04 1.68 20.04 0.84 19.56 0.36ZM6.84 11.16L5.28 12.72C3.84 11.88 2.52 10.68 1.56 9.24C3 7.2 4.92 5.76 7.2 5.04C5.64 6.72 5.52 9.36 6.84 11.16ZM10.92 7.2C10.32 6.6 10.44 5.64 11.04 5.04C11.64 4.56 12.48 4.56 13.08 5.04L10.92 7.2ZM20.76 7.8C20.16 6.96 19.44 6.12 18.6 5.52L17.4 6.72C18.36 7.44 19.2 8.28 19.92 9.36C17.88 12.48 14.4 14.4 10.68 14.4H9.72L8.52 15.6C9.36 15.48 10.08 15.6 10.8 15.6C14.76 15.6 18.48 13.68 20.76 10.44C21.12 9.96 21.36 9.48 21.72 9C21.36 8.64 21.12 8.16 20.76 7.8ZM15.6 8.4L10.8 13.2C13.44 13.2 15.6 11.04 15.6 8.4Z" fill="black"/>
</svg>
