<svg width="20" height="22" viewBox="0 0 20 22" fill="none" xmlns="http://www.w3.org/2000/svg">
<path d="M14.7617 5.46875H17.9617C18.1553 5.46894 18.3419 5.54097 18.4853 5.67087C18.6288 5.80077 18.7189 5.9793 18.7383 6.17187L19.2149 10.9375H17.643L17.2524 7.03125H14.7617V9.375C14.7617 9.5822 14.6794 9.78091 14.5329 9.92743C14.3864 10.0739 14.1877 10.1562 13.9805 10.1562C13.7733 10.1562 13.5746 10.0739 13.4281 9.92743C13.2815 9.78091 13.1992 9.5822 13.1992 9.375V7.03125H6.94923V9.375C6.94923 9.5822 6.86692 9.78091 6.72041 9.92743C6.57389 10.0739 6.37518 10.1562 6.16798 10.1562C5.96078 10.1562 5.76206 10.0739 5.61555 9.92743C5.46904 9.78091 5.38673 9.5822 5.38673 9.375V7.03125H2.89454L1.64454 19.5312H10.0742V21.0938H0.780479C0.67136 21.0936 0.563474 21.0707 0.463771 21.0263C0.364068 20.982 0.27476 20.9173 0.201601 20.8363C0.128442 20.7553 0.0730537 20.6599 0.0390056 20.5563C0.00495748 20.4526 -0.0069958 20.3429 0.00391616 20.2344L1.41017 6.17187C1.42952 5.9793 1.51967 5.80077 1.66314 5.67087C1.80661 5.54097 1.99319 5.46894 2.18673 5.46875H5.38673V4.92344C5.38673 2.21406 7.47423 0 10.0742 0C12.6742 0 14.7617 2.21406 14.7617 4.92344V5.47031V5.46875ZM13.1992 5.46875V4.92344C13.1992 3.05781 11.7899 1.5625 10.0742 1.5625C8.3586 1.5625 6.94923 3.05781 6.94923 4.92344V5.47031H13.1992V5.46875ZM18.1164 17.0938C18.1877 17.0162 18.2739 16.9539 18.3699 16.9105C18.4658 16.8671 18.5696 16.8436 18.6749 16.8413C18.7802 16.8391 18.8848 16.8582 18.9826 16.8974C19.0803 16.9366 19.1691 16.9952 19.2437 17.0696C19.3182 17.144 19.3769 17.2327 19.4163 17.3304C19.4556 17.4281 19.4748 17.5327 19.4727 17.638C19.4706 17.7433 19.4472 17.8471 19.404 17.9432C19.3608 18.0392 19.2985 18.1255 19.2211 18.1969L16.0961 21.3219C15.9496 21.4683 15.7509 21.5506 15.5438 21.5506C15.3366 21.5506 15.1379 21.4683 14.9914 21.3219L11.8664 18.1969C11.7918 18.1248 11.7323 18.0386 11.6913 17.9433C11.6504 17.848 11.6288 17.7455 11.6279 17.6417C11.627 17.538 11.6468 17.4351 11.6861 17.3391C11.7254 17.2431 11.7834 17.1559 11.8567 17.0825C11.9301 17.0091 12.0173 16.9511 12.1133 16.9119C12.2093 16.8726 12.3122 16.8528 12.4159 16.8537C12.5197 16.8546 12.6222 16.8762 12.7175 16.9171C12.8128 16.9581 12.899 17.0176 12.9711 17.0922L14.7617 18.8844V13.2812C14.7617 13.074 14.844 12.8753 14.9906 12.7288C15.1371 12.5823 15.3358 12.5 15.543 12.5C15.7502 12.5 15.9489 12.5823 16.0954 12.7288C16.2419 12.8753 16.3242 13.074 16.3242 13.2812V18.8844L18.1164 17.0922V17.0938Z" fill="black"/>
</svg>
